<?xml version="1.0" encoding="utf-8"?>
<!-- Generator: Adobe Illustrator 24.0.1, SVG Export Plug-In . SVG Version: 6.00 Build 0)  -->
<svg version="1.1" id="Layer_1" xmlns="http://www.w3.org/2000/svg" xmlns:xlink="http://www.w3.org/1999/xlink" x="0px" y="0px"
	 viewBox="0 0 307.2 79.2" style="enable-background:new 0 0 307.2 79.2;" xml:space="preserve">
<style type="text/css">
	.st0{fill:#74E18E;}
</style>
<title>shire-2</title>
<path class="st0" d="M101.6,50.9c0.8,5,4.1,8.3,9.9,8.3c6.3,0,8.5-2.7,8.5-6.7c0-5-3-7.1-11-9.4c-12.8-3.5-17.2-8.1-17.2-16.1
	c0-10.2,8.2-15.8,18.7-15.8c13.3,0,18.9,6.9,19.5,15.8H119c-0.7-4.1-2.7-7.2-8.5-7.2c-4.9,0-7.4,2.3-7.4,6.1c0,4.1,2.8,5.3,10.6,7.6
	c14.1,4.1,17.8,9.8,17.8,17.7c0,9-6,16.7-20.5,16.7C99,68,91.1,61.9,90.5,51L101.6,50.9z"/>
<path class="st0" d="M140.7,12h11.3v21.8h20.2V12h11.3v55.2h-11.3V43.1h-20.2v24.1h-11.3V12z"/>
<path class="st0" d="M230.7,44.4v22.8h-11.1V12h22.5c10.4,0,17.9,5.2,17.9,15c0,7.5-4,11.2-8.6,12.9c5.5,2.1,7.5,6.5,7.5,13.3v1.4
	c0,4.2,0.2,8.4,0.7,12.6h-10.9c-0.8-2.3-1-6-1-12.8V53c0-6.3-2.3-8.5-9.5-8.5L230.7,44.4z M230.7,35.5h8.4c5.4,0,9.8-1.4,9.8-7.5
	c0-5.1-3.7-7-8.2-7h-10L230.7,35.5z"/>
<path class="st0" d="M304.7,43.1h-24V58h26.5l-1.4,9.2h-36.2V12h36v9.3h-25v12.5h24L304.7,43.1z"/>
<path class="st0" d="M39.6,0C17.7,0,0,17.7,0,39.6s17.7,39.6,39.6,39.6s39.6-17.7,39.6-39.6l0,0C79.2,17.7,61.5,0,39.6,0
	C39.6,0,39.6,0,39.6,0z M39.6,68C24,68,11.3,55.3,11.3,39.6S24,11.3,39.7,11.3C55.3,11.3,68,24,68,39.6C68,55.3,55.3,68,39.6,68
	C39.7,68,39.6,68,39.6,68z"/>
<rect x="195.8" y="12" class="st0" width="11.3" height="55.2"/>
</svg>
